# xmcd
#
# Track frame offsets: 
#        150
#        11980
#        31938
#        46125
#        58365
#        65005
#        77215
#        92400
#        112890
#        120825
#        133605
#        150550
#        167090
#        186883
#        198898
#
# Disc length: 2748 seconds
#
# Revision: 0
# Processed by: cddbd v1.5.2PL0 Copyright (c) Steve Scherf et al.
# Submitted via: ExactAudioCopy v0.99pb4
#
DISCID=bf0aba0f
DTITLE=Riders in the Sky - The Cowboy Way
DYEAR=1987
DGENRE=Cowboy
TTITLE0=Texas Plains
TTITLE1=Back in the Saddle Again
TTITLE2=Riders in the Sky
TTITLE3=Carry Me Back to the Lone Prairie
TTITLE4=Mr. Sincere (State Fair Burnout)
TTITLE5=Concerto for Violin and Longhorns
TTITLE6=Lonely Yukon Stars
TTITLE7=The Salting of the Slug
TTITLE8=When Pay Day Rolls Around
TTITLE9=My Oklahoma
TTITLE10=Reincarnation
TTITLE11=Miss Molly
TTITLE12=Ridin' down the Canyon (When the Desert Sun Goes Down)
TTITLE13=That's How the Yodel Was Born
TTITLE14=Happy Trails
EXTD=Ranger Doug [Douglas B. Green]: acoustic guitar, vocals\nWoody Pa
EXTD=ul [Paul Chrisman]: fiddle, vocals\nToo Slim [Fred LaBour]: doubl
EXTD=e bass, vocals\nMark O'Connor: mandolin (track 7), acoustic lead 
EXTD=guitar (12]\nRecorded by Steve Tillisch at Emerald Studio, Nashvi
EXTD=lle US-TN - mixed by Ron Treat.\nProduced by Emory Gordy, Jr.\nMas
EXTD=tered by Glenn Meadows and Milan Bogdan at Masterfonics, Nashvill
EXTD=e US-TN.\nCD: MCA MCAD-31244 (1987, 1999-08-24), UPC 076731124421
EXTD=, BMG D102912.
EXTT0=(Stuart Hamblen)
EXTT1=(Gene Autry/Ray Whitley)
EXTT2=(Stan Jones)
EXTT3=(Carson J. Robison)
EXTT4=(Fred LaBour/Douglas B. Green/Paul Chrisman)
EXTT5=(Paul Chrisman)
EXTT6=(Douglas B. Green)
EXTT7=(Fred LaBour)
EXTT8=(Bob Nolan)
EXTT9=(Terrye Newkirk)
EXTT10=(Wallace McRae)
EXTT11=(Cindy Walker)
EXTT12=(Gene Autry/Smiley Burnett)
EXTT13=(Douglas B. Green)
EXTT14=(Dale Evans)
PLAYORDER=
